<?xml version="1.0" encoding="utf-8"?>
<!-- Generator: Adobe Illustrator 23.1.1, SVG Export Plug-In . SVG Version: 6.00 Build 0)  -->
<svg version="1.1" xmlns="http://www.w3.org/2000/svg" xmlns:xlink="http://www.w3.org/1999/xlink" x="0px" y="0px"
	 viewBox="0 0 666 600" style="enable-background:new 0 0 666 600;" xml:space="preserve">
<style type="text/css">
	.st0{display:none;fill:#333333;}
	.st1{fill:#333333;}
	.st2{fill:#32348D;}
	.st3{fill:#FFFFFF;}
	.st4{fill:none;}
	.st5{fill:#7F7F7F;}
</style>
<g id="Logo_branca">
	<rect class="st0" width="666" height="600"/>
	<g>
		<g>
			<path class="st3" d="M431.3,311.6l-0.1-0.1l0-0.1l-0.3-0.6c-0.1-0.3-0.3-0.6-0.4-0.9c13.7-20.1,21-43.6,21-68
				c0-45.6-26.3-87.9-67.1-108.2l-0.2-4.4c-0.1-2.2-0.3-4.2-0.5-6.3c-0.5-4.5-1.1-8.9-2-13.1c-0.5-2.2-1-4.4-1.5-6.5
				c-0.6-2.1-1.2-4.3-1.9-6.3c-0.7-2.3-1.6-4.6-2.6-7C442.7,109.9,489,171.7,489,241.9c0,25.2-5.7,49.2-17,71.5
				c-9.7,19.1-23.4,36.2-39.9,50c0.2-0.6,0.4-1.1,0.5-1.7c2.1-7.3,3.4-13.3,3.8-19c0.2-2.2,0.2-4.4,0.2-6.5l0-0.3l0-0.1
				c-0.2-6.8-1.5-13.6-3.8-20.1L431.3,311.6z"/>
			<path class="st3" d="M507.4,196.6c-8.7-33.8-26.8-63.8-51.4-87c0.2-0.2,0.5-0.4,0.7-0.7c4.1-4.9,3.4-12.1-1.4-16.2
				c-4.9-4.1-12.2-3.4-16.3,1.4c-0.2,0.3-0.4,0.6-0.6,0.9c-27.8-20.4-61.6-33.1-98.3-35c-0.1-5.9-5-10.7-10.9-10.7
				c-6,0-10.9,4.8-10.9,10.8c-35.5,2.4-68.1,15-95.1,34.8c-0.2-0.3-0.4-0.6-0.6-0.9c-4.1-4.9-11.4-5.5-16.2-1.4
				c-4.9,4.1-5.5,11.4-1.4,16.2c0.2,0.3,0.5,0.5,0.7,0.7c-24.6,23.2-42.7,53.3-51.4,87.1h0c-3.7,14.5-5.7,29.7-5.7,45.4
				c0,15.6,2,30.8,5.7,45.3h0c0.1,0.5,0.2,1,0.4,1.5c0,0.1,0.1,0.3,0.1,0.4c0.4,1.4,0.7,2.7,1.1,4.1c0.1,0.2,0.1,0.4,0.2,0.6
				c0.4,1.3,0.8,2.7,1.2,4c0,0,0,0,0,0c2.8,8.8,6.3,17.3,10.4,25.4c0,0,0,0,0,0c9.5,19,22.3,36.2,37.5,50.7
				c-0.1,0.1-0.2,0.2-0.3,0.3c-4.1,4.9-3.5,12.2,1.4,16.2c4.9,4.1,12.1,3.5,16.2-1.4c0.1-0.1,0.1-0.2,0.2-0.3
				c27.1,20,59.9,32.7,95.6,35.1c0,0.2,0,0.5,0,0.7c0,6,4.9,10.9,10.9,10.9c6,0,10.9-4.9,10.9-10.9c0-0.2,0-0.3,0-0.5
				c37.1-1.9,71.2-14.8,99.2-35.6c4.1,4.7,11.2,5.2,16,1.2c4.8-4,5.5-11.2,1.5-16c14.8-14.2,27.2-30.9,36.6-49.3
				c0.5-0.9,0.9-1.8,1.3-2.7c0.5-1,1-2,1.4-3c0.3-0.6,0.6-1.2,0.9-1.9c0.7-1.5,1.4-3.1,2-4.6c0.1-0.2,0.2-0.4,0.2-0.6
				c1.6-3.8,3-7.6,4.3-11.5c0.1-0.3,0.2-0.6,0.3-0.8c0.6-1.7,1.1-3.4,1.6-5.1c0.1-0.3,0.2-0.5,0.2-0.8c0.6-2,1.1-3.9,1.6-5.9
				c3.7-14.5,5.7-29.7,5.7-45.4C513.1,226.3,511.1,211.1,507.4,196.6z M165.7,242c0-84.8,63.9-154.6,146.2-164c0,0,0,0,0,0l0,0
				c-3.7,5.6-6.5,11.9-8.5,18.6c-3.5,11.5-4.8,24.2-5.1,36.7c0,0.2,0,0.5,0,0.7c-0.1,6.5,0,12.8,0.2,18.9c0.1,1.8,0.3,3.5,0.4,5.3
				c0.2,1.8,0.4,3.5,0.6,5.3c0.7,5.3,1.6,10.5,2.7,15.7c1.3,5.7,2.9,11.3,4.7,16.8h0c0.5,1.4,0.9,2.7,1.4,4.1
				c0.5,1.4,1.1,2.8,1.6,4.2c0,0,0,0,0,0c0.8-0.9,1.5-1.8,2.2-2.6c0.3-0.3,0.5-0.6,0.8-0.9c0.4-0.5,0.8-1,1.2-1.4
				c0.3-0.4,0.7-0.7,1-1.1c0.3-0.3,0.6-0.6,0.8-0.9c0.4-0.4,0.8-0.9,1.2-1.3c3-3.3,5.5-5.8,7.8-8.7c-1.5-3.7-2.9-7.6-4.1-11.6
				c-0.4-1.3-0.8-2.7-1.2-4c-0.8-2.7-1.4-5.4-2-8.1c-0.4-2.6-0.8-5.3-1.1-8c-0.5-4.1-0.9-8.3-1.1-12.5c-0.2-2.8-0.2-5.6-0.2-8.4
				c0,0,0,0,0-0.1c0-5.7,0.4-11.3,1.2-16.8c0.2-1.4,0.5-2.7,0.7-4.1c0.5-2.7,1.2-5.3,2-7.9c0.8-2.6,1.8-5.1,2.9-7.5
				c9.4-20.4,29.6-25.5,36.5,4.1c0.9,4,1.4,7.9,1.5,11.9c0.2,4.9-0.2,9.7-0.9,14.5c-0.1,1-0.3,1.9-0.4,2.9c-0.9,5.7-2.3,11.4-3.6,17
				c-0.4,1.8-1,3.5-1.6,5.2c-0.6,1.6-1.2,3.2-1.8,4.7c-1.3,3.1-2.9,6.1-4.6,9.1c-0.6,1.1-1.3,2.3-2,3.4c-2.8,4.5-6,9.1-9.7,13.7
				c-2.7,3.4-5.7,6.9-8.8,10.4c-6.3,6.9-12.6,13.3-19.2,19.8c-6.6,6.5-13.3,13.1-20.3,20.5c-14.5,15.3-26.9,30.5-34.7,46.7
				c-1,2-1.8,4.1-2.7,6.1l0,0c-0.5,1.4-1,2.7-1.5,4.1c0,0.1,0,0.1-0.1,0.2c-0.4,1.3-0.9,2.6-1.2,3.9c-0.1,0.4-0.2,0.8-0.3,1.2
				c-0.3,1-0.6,2-0.8,3.1c-0.3,1.5-0.6,3-0.9,4.5c-0.5,2.6-0.8,5.2-1.1,7.8c-0.4,3.8-0.7,7.6-0.8,11.4c-0.3,23.4,7.2,48.1,32.1,70.6
				c1.6,1.5,3.3,2.9,5,4.3C213.7,377.7,165.7,315.5,165.7,242z M410.1,354.4c0,0.7-0.1,1.4-0.1,2.2c0.1,3.1-0.4,6.4-1.4,10
				s-2.4,7.2-4.3,10.9c-2.3,4.4-5.2,8.8-8.6,13.1l0,0c-1.6,1.9-3.3,3.8-5,5.5l0,0l0,0c-6.4,2.5-13,4.6-19.8,6.3c0-0.2,0-0.4-0.1-0.6
				c-0.1-0.5-0.1-1.3-0.2-2.1c0-0.4-0.1-0.9-0.2-1.4c-0.1-1-0.2-2.2-0.4-3.5c-0.1-0.6-0.2-1.3-0.2-2c-0.2-1.3-0.3-2.8-0.5-4.3
				c-0.1-0.9-0.2-1.9-0.4-2.9c-0.2-1.8-0.5-3.7-0.7-5.7c-0.3-2-0.5-4.1-0.8-6.2c-0.3-2.2-0.6-4.4-0.9-6.8c-0.5-3.5-1-7.2-1.6-11
				c-2.2-14-4.9-29.7-8.4-45.3c1.1-0.1,1.1-0.1,2.2-0.1h0c2.9,0,5.6,0.1,8.3,0.4c1.8,0.2,3.6,0.5,5.3,0.8c1.5,0.3,3,0.7,4.5,1.1
				c1.8,0.5,3.6,1.1,5.3,1.8c2.3,0.9,4.5,1.9,6.6,3.1c1.4,0.8,2.7,1.6,4,2.5c2.5,1.8,4.8,3.8,6.9,5.9c0.9,1,1.8,2,2.6,3
				c0.5,0.7,1.1,1.4,1.6,2.1c0.6,0.9,1.2,1.9,1.8,2.9c0.5,0.9,1,1.8,1.4,2.8c0.4,0.8,0.7,1.7,1,2.6c0.4,1,0.7,2.1,1,3.2
				c0.1,0.3,0.2,0.6,0.2,0.9c0.7,2.7,1.1,5.6,1.1,8.5C410.1,352.8,410.1,353.6,410.1,354.4z M413.4,385.1
				C413.4,385.1,413.4,385.1,413.4,385.1L413.4,385.1c5.9-8.4,9.9-17.3,12.3-25.5c1.7-5.7,3.1-11.6,3.6-17.6c0.2-2,0.2-4,0.2-6
				c0,0.1,0,0.2,0,0.3c0-0.1,0-0.2,0-0.3l0-0.1l0,0.1c0,0,0,0,0,0l0,0c-0.2-6.5-1.5-12.8-3.6-18.7c-0.4-1-0.8-2-1.2-3l0,0
				c-0.4-0.9-0.8-1.9-1.2-2.8c-0.7-1.5-1.5-2.9-2.4-4.3c0,0,0,0,0-0.1c-2.6-4.2-5.7-8.2-9.4-11.6c-0.1-0.1-0.3-0.3-0.5-0.4
				c-4.8-4.5-10.4-8.2-16.7-11.1c-4.9-2.2-10.2-3.9-15.9-5c-3.7-0.7-7.5-1-11.5-1.1c-1.6,0-3.1,0-4.6,0.1c-4.5,0.2-8.6,0.8-13.1,1.9
				c-0.7-2.8-1.3-5.6-2-8.2c-1.3-5.3-2.4-10.1-3.4-14.4c-1.7-7.4-2.9-13-3.5-15.6c-0.2-0.8-0.3-1.3-0.3-1.5c0-0.1,0-0.2,0-0.2
				c-0.5,0.4-1,0.8-1.6,1.2c-3.3,2.7-7.8,7.1-11.4,10.8c-0.6,0.6-1.2,1.2-1.7,1.8c2.2,7.4,4.3,15.5,6.4,23.4
				c0.7,2.6,1.4,5.2,2.1,7.7c-7.8,3.5-14.8,8.1-20.7,13.5c-2,1.8-3.8,3.7-5.5,5.6l-0.2,0.2c-2,2.2-3.8,4.5-5.5,6.9
				c-1.1,1.6-2.1,3.3-3.1,4.9c-2.4,4.2-4.2,8.8-5.4,13.6c-1.4,5.8-1.9,11.9-1.2,18.5c0.1,1,0.2,2.1,0.4,3.1c0.3,1.9,0.7,3.7,1.3,5.5
				c1,3.5,2.4,6.9,4.2,10c1.1,1.9,2.3,3.7,3.7,5.4c0.7,0.9,1.5,1.8,2.3,2.7c2.4,2.6,5.2,5,8.4,7.1c-1.7-2-3.2-4.1-4.5-6.3
				c-1.8-3-3.2-6.2-4.2-9.5c-0.4-1.5-0.8-3-1.1-4.5c-0.1-0.8-0.2-1.7-0.3-2.5c-0.1-1.5-0.2-2.9-0.2-4.4c0-0.2,0-0.4,0-0.5
				c0.6-14.3,9.6-26.7,23.4-34.7c4.6-2.7,9.7-4.8,15.2-6.4h0c3.8,15.4,6.9,30.9,9.7,46.2c0,0.2,0.1,0.4,0.1,0.6
				c0,0.2,0.1,0.5,0.1,0.7c1.4,7.9,2.8,15.7,4,23.5c1.1,7,2.2,14,3.2,20.9c-8.9,1.5-18,2.3-27.3,2.3c-10.7,0-21.1-1.1-31.3-3h0
				c-0.5-0.3-1-0.5-1.4-0.8c-2.2-1.3-4.4-2.6-6.5-4.1c-8.3-5.7-15.4-12.8-20.9-20.6c-8.8-12.5-13.5-27-13-40.9c0-0.1,0-0.2,0-0.3
				c0,0,0,0,0,0c0.1-1.2,0.2-2.4,0.3-3.6c0-0.1,0-0.3,0-0.4c0-0.2,0.1-0.5,0.1-0.7c0.1-0.9,0.2-1.7,0.4-2.6c0-0.2,0.1-0.5,0.1-0.7
				c0,0,0,0,0,0c0-0.2,0.1-0.3,0.1-0.5c0.2-1,0.4-1.9,0.6-2.9c0.1-0.3,0.1-0.6,0.2-0.8c0.3-1.2,0.6-2.4,1-3.6c0.1-0.5,0.3-1,0.4-1.4
				c0.2-0.7,0.5-1.5,0.7-2.2c0.1-0.3,0.2-0.6,0.3-0.9c0.1-0.3,0.2-0.5,0.3-0.8c0.2-0.7,0.5-1.4,0.8-2.1c0.2-0.6,0.4-1.1,0.7-1.7
				c0.4-1.1,0.9-2.2,1.4-3.2c0.1-0.2,0.1-0.3,0.2-0.5c0.2-0.5,0.5-1.1,0.8-1.6c0.2-0.5,0.5-1,0.7-1.5c0.4-0.7,0.7-1.5,1.1-2.2
				c0.2-0.4,0.4-0.8,0.7-1.2c0.3-0.6,0.6-1.1,0.9-1.7c1.2-2.1,2.5-4.2,3.9-6.2c0.1-0.2,0.3-0.4,0.4-0.6c0.6-0.8,1.1-1.6,1.7-2.5
				c0.2-0.2,0.4-0.5,0.5-0.7c0.4-0.5,0.8-1.1,1.2-1.6c0.2-0.3,0.4-0.6,0.7-0.8c1.7-2.2,3.5-4.4,5.3-6.4c2.1-2.3,4.3-4.6,6.5-6.7
				c6.1-5.6,12.5-10.8,18.9-16c4.3-3.4,8.6-6.8,12.8-10.4c2.1-1.8,4.2-3.5,6.2-5.4c4.1-3.7,8.1-7.5,11.9-11.6
				c4.5-5,8.3-9.6,11.5-13.9c2.2-2.9,4.1-5.7,5.8-8.3c1.7-2.7,3.2-5.2,4.6-7.7c3.4-6.2,5.7-11.9,7.6-17.5c0.7-2.2,1.4-4.4,2.1-6.6
				c0.6-2.2,1.2-4.4,1.8-6.6c1-3.9,1.9-7.8,2.5-11.6c1.1-6.6,1.7-13.8,1.7-21.2c0-0.7,0-1.4,0-2.1c0-0.6,0-1.3-0.1-1.9l0-0.1l0,0
				c-0.1-3.5-0.3-6.9-0.6-10.4c-0.4-4.2-1.1-8.3-1.9-12.4c-0.4-2-0.9-4.1-1.4-6.1c-0.5-2-1.1-4-1.8-5.9c-1.1-3.4-2.4-6.8-4.1-10.2
				c-0.7-1.4-1.4-2.7-2.1-4c-1-1.8-2.1-3.6-3.2-5.3c76.3,14.6,134,81.6,134,162.2C496.1,303.1,462.8,356.5,413.4,385.1z"/>
			<path class="st3" d="M150.7,300L150.7,300c-0.4-1.3-0.8-2.7-1.3-4.2l-0.1-0.2l-0.1-0.4c-0.4-1.3-0.8-2.8-1.2-4.2l0-0.1l-0.1-0.3
				c-0.1-0.3-0.2-0.6-0.2-1l-0.1-0.5l-0.4-1.7c-20.3,0-30.4,0-30.4,0c21.7,17.3,35.7,28.6,42.2,33.8
				C155.8,314.2,153,307.2,150.7,300L150.7,300z"/>
			<path class="st3" d="M512.5,295.2c-0.1,0.2-0.1,0.4-0.2,0.5l-0.1,0.3c-0.5,1.8-1.1,3.6-1.7,5.3l-0.1,0.3l-0.2,0.6
				c-1.4,4-2.9,8.1-4.5,11.9c-0.1,0.1-0.1,0.3-0.2,0.4l-0.1,0.2c-0.6,1.5-1.3,3.1-2.1,4.8c-0.2,0.5-0.5,1-0.7,1.5
				c6.5-5.2,20.6-16.4,42.3-33.7c0,0-10.1,0-30.5,0c-0.1,0.6-0.3,1.2-0.4,1.7C513.7,291.1,513.1,293.1,512.5,295.2z"/>
			<path class="st3" d="M215.2,271.6c3.9,16.8,11.2,31.9,21.1,44.8c0.1-1.4,0.2-2.9,0.4-4.3c0.3-2.6,0.7-5.2,1.1-7.8
				c-6.4-10.4-11.2-22-14.1-34.6C211,214,240.4,158.5,291.1,136.7c0-0.5,0-0.9,0-1.4C235.2,154.3,201.7,212.9,215.2,271.6z"/>
			<path class="st3" d="M145.6,280.3c-2-9.8-3.3-19.9-3.7-30c-2.2-2-3.5-4.8-3.5-8c0-3.2,1.4-6,3.5-8c0.4-10.4,1.7-20.7,3.7-30.8
				h-0.3l1.8-7h-30.4v90.7c0,0,10.1,0,30.4,0l-1.8-7H145.6z"/>
			<path class="st3" d="M523.4,242.4c0,3.2-1.4,6-3.5,8c-0.5,12.5-2.3,24.9-5.3,37c20.3,0,30.5,0,30.5,0v-90.7h-30.4
				c3,12.4,4.8,25,5.3,37.8C522.1,236.4,523.4,239.2,523.4,242.4z"/>
			<polygon class="st3" points="429.4,336 429.4,336 429.4,336 			"/>
			<path class="st3" d="M294.5,135.3c0-0.4,0-0.7,0-1.1c-1.1,0.3-2.3,0.7-3.4,1.1c0,0.5,0,0.9,0,1.4
				C292.2,136.2,293.4,135.8,294.5,135.3z"/>
		</g>
		<g>
			<g>
				<path class="st3" d="M301.3,490.1c-0.3,0.5-0.6,0.7-1.1,0.7c-0.4,0-0.8-0.3-1.4-0.8c-0.6-0.5-1.4-1.1-2.4-1.7
					c-1-0.6-2.2-1.2-3.7-1.8c-1.5-0.5-3.3-0.8-5.5-0.8c-2.2,0-4.1,0.3-5.8,0.9c-1.7,0.6-3,1.5-4.2,2.5c-1.1,1.1-2,2.3-2.5,3.7
					c-0.6,1.4-0.9,2.9-0.9,4.5c0,2,0.4,3.7,1.3,5.1c0.9,1.3,2,2.5,3.4,3.4c1.4,0.9,3,1.7,4.8,2.4c1.8,0.6,3.6,1.3,5.5,1.9
					c1.9,0.6,3.7,1.3,5.5,2.1c1.8,0.8,3.4,1.7,4.8,2.8c1.4,1.1,2.6,2.5,3.4,4.2c0.9,1.7,1.3,3.7,1.3,6.2c0,2.5-0.4,4.9-1.3,7.1
					c-0.9,2.2-2.1,4.2-3.8,5.8c-1.6,1.6-3.7,2.9-6,3.9s-5.1,1.4-8.2,1.4c-4,0-7.4-0.7-10.2-2.1c-2.9-1.4-5.4-3.3-7.5-5.8l1.2-1.9
					c0.3-0.4,0.7-0.6,1.2-0.6c0.3,0,0.6,0.2,1,0.5c0.4,0.3,0.9,0.8,1.4,1.3c0.6,0.5,1.2,1,2,1.6c0.8,0.6,1.7,1.1,2.8,1.6
					c1,0.5,2.3,0.9,3.6,1.3c1.4,0.3,2.9,0.5,4.6,0.5c2.4,0,4.5-0.4,6.4-1.1s3.4-1.7,4.7-3c1.3-1.2,2.3-2.7,3-4.4
					c0.7-1.7,1-3.5,1-5.5c0-2.1-0.4-3.9-1.3-5.2c-0.9-1.4-2-2.5-3.4-3.4c-1.4-0.9-3-1.7-4.8-2.3c-1.8-0.6-3.6-1.2-5.5-1.8
					c-1.9-0.6-3.7-1.3-5.5-2c-1.8-0.7-3.4-1.7-4.8-2.8c-1.4-1.1-2.6-2.6-3.4-4.3c-0.9-1.7-1.3-3.9-1.3-6.4c0-2,0.4-3.9,1.1-5.8
					c0.8-1.9,1.9-3.5,3.4-4.9c1.5-1.4,3.3-2.6,5.5-3.4c2.2-0.9,4.6-1.3,7.4-1.3c3.1,0,5.9,0.5,8.4,1.5c2.5,1,4.7,2.5,6.8,4.5
					L301.3,490.1z"/>
				<path class="st3" d="M357.5,482.8v3.7h-21.1v56.4H332v-56.4h-21.2v-3.7H357.5z"/>
				<path class="st3" d="M372.8,515.7v27.2h-4.4v-60.1h15.4c6.9,0,12.1,1.3,15.5,4s5.2,6.6,5.2,11.8c0,2.3-0.4,4.4-1.2,6.3
					s-2,3.6-3.4,5c-1.5,1.4-3.3,2.6-5.4,3.5c-2.1,0.9-4.5,1.5-7.1,1.8c0.7,0.4,1.3,1,1.8,1.7l20.7,26h-3.7c-0.5,0-0.9-0.1-1.2-0.2
					c-0.3-0.2-0.6-0.4-0.9-0.9l-19.3-24.4c-0.2-0.3-0.5-0.6-0.7-0.8c-0.2-0.2-0.5-0.4-0.8-0.5c-0.3-0.1-0.7-0.2-1.1-0.3
					c-0.4-0.1-0.9-0.1-1.5-0.1H372.8z M372.8,512.4h10.4c2.7,0,5-0.3,7.2-1c2.1-0.6,3.9-1.5,5.3-2.7c1.5-1.2,2.6-2.6,3.3-4.3
					c0.8-1.7,1.1-3.6,1.1-5.6c0-4.3-1.4-7.4-4.2-9.5c-2.8-2.1-6.9-3.1-12.2-3.1h-11V512.4z"/>
				<path class="st3" d="M425.2,542.8h-4.4v-60.1h4.4V542.8z"/>
				<path class="st3" d="M446.9,482.9c0.2,0.1,0.4,0.3,0.7,0.7l38.9,52.1c-0.1-0.8-0.1-1.7-0.1-2.5v-50.4h3.8v60.1h-2
					c-0.4,0-0.7-0.1-0.9-0.2c-0.2-0.1-0.5-0.3-0.7-0.7l-39-52.1c0.1,0.8,0.1,1.6,0.1,2.4v50.6h-3.8v-60.1h2.2
					C446.4,482.8,446.7,482.8,446.9,482.9z"/>
				<path class="st3" d="M547.2,541.8c-3.4,1.1-7.2,1.7-11.5,1.7c-4.8,0-9-0.7-12.8-2.2s-7-3.5-9.7-6.2c-2.7-2.7-4.7-5.9-6.2-9.7
					c-1.4-3.8-2.1-8-2.1-12.7s0.7-8.9,2.1-12.6c1.4-3.8,3.4-7,6-9.7c2.6-2.7,5.8-4.7,9.5-6.2c3.7-1.5,7.9-2.2,12.5-2.2
					c2.3,0,4.4,0.2,6.3,0.5c1.9,0.3,3.7,0.8,5.4,1.4c1.7,0.6,3.2,1.4,4.7,2.2s2.8,1.9,4.2,3.1l-1.2,1.9c-0.4,0.7-1,0.8-1.8,0.5
					c-0.4-0.2-1-0.6-1.8-1.2c-0.8-0.6-1.9-1.3-3.3-2c-1.4-0.7-3.1-1.3-5.2-1.8c-2.1-0.5-4.5-0.8-7.5-0.8c-3.9,0-7.4,0.6-10.6,1.9
					c-3.2,1.2-5.8,3-8.1,5.3c-2.2,2.3-3.9,5.2-5.1,8.5c-1.2,3.3-1.8,7.1-1.8,11.3c0,4.2,0.6,8,1.8,11.4c1.2,3.4,2.9,6.2,5.2,8.6
					c2.3,2.3,5,4.1,8.3,5.4c3.3,1.2,6.9,1.9,11,1.9c1.8,0,3.4-0.1,4.9-0.3c1.5-0.2,3-0.5,4.3-1s2.7-0.9,4-1.5
					c1.3-0.6,2.6-1.3,3.9-2.1v-16.2h-11.5c-0.3,0-0.6-0.1-0.8-0.3c-0.2-0.2-0.3-0.4-0.3-0.7v-2.4h16.6v21.4
					C553.8,539.1,550.6,540.7,547.2,541.8z"/>
				<path class="st3" d="M601.2,490.1c-0.3,0.5-0.6,0.7-1.1,0.7c-0.4,0-0.8-0.3-1.4-0.8c-0.6-0.5-1.4-1.1-2.4-1.7
					c-1-0.6-2.2-1.2-3.7-1.8c-1.5-0.5-3.3-0.8-5.5-0.8c-2.2,0-4.1,0.3-5.8,0.9c-1.7,0.6-3,1.5-4.2,2.5c-1.1,1.1-2,2.3-2.5,3.7
					c-0.6,1.4-0.9,2.9-0.9,4.5c0,2,0.4,3.7,1.3,5.1c0.9,1.3,2,2.5,3.4,3.4c1.4,0.9,3,1.7,4.8,2.4c1.8,0.6,3.6,1.3,5.5,1.9
					c1.9,0.6,3.7,1.3,5.5,2.1c1.8,0.8,3.4,1.7,4.8,2.8c1.4,1.1,2.6,2.5,3.4,4.2c0.9,1.7,1.3,3.7,1.3,6.2c0,2.5-0.4,4.9-1.3,7.1
					c-0.9,2.2-2.1,4.2-3.8,5.8c-1.6,1.6-3.7,2.9-6,3.9c-2.4,0.9-5.1,1.4-8.2,1.4c-4,0-7.4-0.7-10.2-2.1c-2.9-1.4-5.4-3.3-7.5-5.8
					l1.2-1.9c0.3-0.4,0.7-0.6,1.2-0.6c0.3,0,0.6,0.2,1,0.5c0.4,0.3,0.9,0.8,1.4,1.3c0.6,0.5,1.2,1,2,1.6c0.8,0.6,1.7,1.1,2.8,1.6
					s2.3,0.9,3.6,1.3c1.4,0.3,2.9,0.5,4.6,0.5c2.4,0,4.5-0.4,6.4-1.1s3.4-1.7,4.7-3c1.3-1.2,2.3-2.7,3-4.4c0.7-1.7,1-3.5,1-5.5
					c0-2.1-0.4-3.9-1.3-5.2s-2-2.5-3.4-3.4c-1.4-0.9-3-1.7-4.8-2.3c-1.8-0.6-3.6-1.2-5.5-1.8c-1.9-0.6-3.7-1.3-5.5-2
					c-1.8-0.7-3.4-1.7-4.8-2.8c-1.4-1.1-2.6-2.6-3.4-4.3c-0.9-1.7-1.3-3.9-1.3-6.4c0-2,0.4-3.9,1.1-5.8c0.8-1.9,1.9-3.5,3.4-4.9
					c1.5-1.4,3.3-2.6,5.5-3.4c2.2-0.9,4.6-1.3,7.4-1.3c3.1,0,5.9,0.5,8.4,1.5c2.5,1,4.7,2.5,6.8,4.5L601.2,490.1z"/>
			</g>
			<g>
				<path class="st3" d="M45.6,542.8v-61.1H66c3.9,0,7.2,0.4,10,1.1c2.8,0.8,5.1,1.8,6.8,3.2c1.8,1.4,3.1,3.1,3.9,5.1
					c0.8,2,1.3,4.2,1.3,6.7c0,1.4-0.2,2.8-0.7,4.2c-0.4,1.4-1.1,2.6-2,3.8c-0.9,1.2-2.1,2.2-3.5,3.2c-1.4,0.9-3,1.7-4.9,2.4
					c4.3,0.9,7.6,2.5,9.7,4.8s3.2,5.3,3.2,9c0,2.6-0.5,5-1.5,7.2s-2.4,4-4.2,5.6c-1.9,1.6-4.1,2.8-6.9,3.7c-2.7,0.9-5.8,1.3-9.3,1.3
					H45.6z M55.6,508.6h9.9c4.2,0,7.4-0.8,9.5-2.5s3.1-4,3.1-7.1c0-3.4-1-5.8-3-7.3c-2-1.5-5-2.2-9.2-2.2H55.6V508.6z M55.6,515.6
					V535h12.3c2.2,0,4.1-0.3,5.7-0.8s2.8-1.2,3.8-2.1c1-0.9,1.7-2,2.1-3.2s0.7-2.6,0.7-4c0-2.9-1-5.2-3-6.8c-2-1.7-5.1-2.5-9.3-2.5
					H55.6z"/>
				<path class="st3" d="M140.1,481.7v8h-28.1v18.4h22.5v7.8h-22.5v18.9h28.2l0,8h-38.1v-61.1H140.1z"/>
				<path class="st3" d="M202.9,542.8h-7.7c-0.9,0-1.6-0.2-2.1-0.7c-0.5-0.4-0.9-1-1.2-1.6l-5.1-13.5h-26.3l-5.1,13.5
					c-0.2,0.6-0.6,1.1-1.2,1.6s-1.3,0.7-2.1,0.7h-7.7l24.2-61.1h10.1L202.9,542.8z M163.1,519.9h21l-8.4-22.3
					c-0.3-0.8-0.7-1.8-1-2.9c-0.4-1.1-0.7-2.3-1-3.7c-0.3,1.3-0.7,2.6-1,3.7c-0.4,1.1-0.7,2.1-1,3L163.1,519.9z"/>
				<path class="st3" d="M246.9,481.7v8.3h-19.1v52.9H218V490h-19.1v-8.3H246.9z"/>
			</g>
		</g>
	</g>
</g>
<g id="Logo">
</g>
</svg>
